<svg width="189" height="50" viewBox="0 0 189 50" fill="none" xmlns="http://www.w3.org/2000/svg">
<rect width="50" height="50" rx="10" fill="#57B1A1"/>
<path d="M66.0341 36H60.7614L68.7955 12.7273H75.1364L83.1591 36H77.8864L72.0568 18.0455H71.875L66.0341 36ZM65.7045 26.8523H78.1591V30.6932H65.7045V26.8523ZM90.8807 12.7273V36H85.9602V12.7273H90.8807ZM109.098 13.312C108.874 12.576 108.49 11.424 108.106 10.368L112.426 9.856C112.906 12.32 113.674 14.848 114.442 16.896C115.434 19.584 116.938 22.336 117.994 23.808C118.538 24.608 119.114 25.28 119.69 25.952L117.738 28.8C115.946 28.448 111.882 28.032 109.194 27.808L109.514 24.416C111.082 24.576 113.194 24.736 114.186 24.832C113.034 22.944 111.626 20.256 110.634 17.6C109.93 15.84 109.482 14.368 109.098 13.312ZM97.4503 14.816C103.434 15.52 108.298 15.488 112.138 15.072C114.986 14.72 117.802 14.176 120.33 13.408L120.81 17.408C118.698 18.016 115.946 18.496 113.386 18.784C109.13 19.296 104.074 19.424 97.5143 18.88L97.4503 14.816ZM103.882 25.696C102.826 27.232 102.314 28.64 102.314 30.016C102.314 32.736 104.714 33.856 109.098 33.888C112.586 33.888 115.402 33.536 117.642 33.088L117.418 37.152C115.594 37.472 112.714 37.888 108.842 37.888C102.282 37.888 98.1863 35.36 98.1863 30.72C98.1863 28.768 98.7943 26.944 99.8823 24.768L103.882 25.696ZM136.49 16.736C138.346 16.928 140.202 17.024 142.09 17.024C146.026 17.024 150.026 16.672 153.354 16V19.968C149.994 20.48 145.994 20.736 142.09 20.736C140.234 20.736 138.41 20.672 136.522 20.544L136.49 16.736ZM148.682 11.328C148.554 11.968 148.49 12.736 148.458 13.408C148.394 14.464 148.362 16.64 148.362 18.976C148.362 24.864 148.874 28.992 148.874 32.032C148.874 35.392 147.21 37.888 142.602 37.888C138.186 37.888 135.434 36 135.434 32.64C135.434 29.408 138.154 27.168 142.506 27.168C148.522 27.168 152.426 30.176 154.89 32.48L152.746 35.84C149.034 32.384 145.834 30.272 142.186 30.272C140.394 30.272 139.146 31.008 139.146 32.224C139.146 33.536 140.458 34.08 142.122 34.08C144.106 34.08 144.778 33.056 144.778 31.168C144.778 28.96 144.362 23.584 144.362 18.976C144.362 16.544 144.33 14.4 144.33 13.44C144.33 12.96 144.202 11.968 144.106 11.328H148.682ZM133.066 11.68C132.81 12.352 132.394 13.952 132.298 14.528C131.818 16.672 130.762 23.744 130.762 26.912C130.762 27.552 130.794 28.352 130.922 28.992C131.338 27.872 131.85 26.784 132.33 25.728L134.314 27.296C133.418 29.92 132.362 33.184 131.978 34.944C131.882 35.392 131.818 36.064 131.818 36.416C131.818 36.736 131.85 37.28 131.882 37.76L128.266 38.016C127.626 35.776 127.018 32.128 127.018 27.776C127.018 22.944 127.978 16.896 128.33 14.432C128.458 13.568 128.618 12.32 128.618 11.296L133.066 11.68ZM151.306 10.048C151.882 11.328 152.618 13.184 152.97 14.432L150.762 15.168C150.282 13.76 149.738 12.032 149.098 10.72L151.306 10.048ZM154.602 9.024C155.21 10.304 155.946 12.16 156.33 13.376L154.122 14.112C153.674 12.704 153.066 11.008 152.426 9.728L154.602 9.024ZM159.818 21.184C161.002 21.28 163.306 21.408 164.97 21.408C168.746 21.408 179.306 21.408 182.154 21.408C183.658 21.408 185.066 21.248 185.93 21.184V26.24C185.162 26.208 183.53 26.048 182.186 26.048C179.274 26.048 168.746 26.048 164.97 26.048C163.178 26.048 161.034 26.144 159.818 26.24V21.184Z" fill="#57B1A1"/>
</svg>
